<?xml version="1.0" standalone="no"?>
<!DOCTYPE svg PUBLIC "-//W3C//DTD SVG 20010904//EN"
 "http://www.w3.org/TR/2001/REC-SVG-20010904/DTD/svg10.dtd">
<svg version="1.0" xmlns="http://www.w3.org/2000/svg"
 width="350.000000pt" height="350.000000pt" viewBox="0 0 350.000000 350.000000"
 preserveAspectRatio="xMidYMid meet">
<metadata>
Created by potrace 1.11, written by Peter Selinger 2001-2013
</metadata>
<g transform="translate(0.000000,350.000000) scale(0.100000,-0.100000)"
fill="#000000" stroke="none">
<path d="M539 3377 c-66 -25 -103 -54 -240 -194 -164 -166 -183 -197 -183
-308 -1 -103 20 -147 119 -250 41 -42 75 -78 75 -80 0 -1 -20 -44 -44 -96 -51
-110 -99 -253 -120 -359 -8 -41 -18 -88 -21 -105 -14 -62 -13 -379 0 -468 85
-552 429 -1016 928 -1251 241 -113 492 -164 755 -153 75 3 148 8 162 11 14 3
42 7 62 10 115 17 288 72 420 133 l96 45 76 -75 c100 -99 147 -122 251 -122
112 0 150 23 323 199 169 171 187 201 187 311 0 106 -21 149 -119 249 l-78 78
42 91 c39 83 94 233 105 282 7 37 34 160 41 190 11 50 13 376 3 440 -40 256
-111 458 -227 645 -368 598 -1051 895 -1737 756 -105 -21 -255 -72 -364 -122
-51 -24 -95 -44 -97 -44 -2 0 -38 33 -79 74 -41 41 -96 84 -121 97 -57 27
-164 35 -215 16z m154 -277 l52 -50 -65 -57 c-78 -70 -131 -124 -187 -189
l-42 -49 -51 50 c-40 39 -50 55 -45 72 5 23 230 255 256 266 25 10 30 7 82
-43z m1298 -92 c103 -19 251 -69 340 -114 97 -49 236 -151 323 -239 177 -178
291 -383 347 -627 25 -107 35 -361 18 -463 -57 -347 -216 -613 -505 -845 -111
-89 -358 -200 -500 -225 -21 -4 -50 -9 -64 -12 -14 -3 -92 -7 -175 -9 -183 -4
-281 11 -445 66 -396 133 -716 479 -819 885 -33 130 -34 133 -37 300 -2 125 1
181 16 255 32 162 77 284 150 409 192 330 522 560 895 625 117 20 331 18 456
-6z m1113 -2318 c25 -27 46 -56 46 -65 0 -20 -256 -275 -276 -275 -9 0 -39 22
-67 50 l-52 50 55 47 c63 55 135 128 193 196 22 26 44 47 47 47 4 0 28 -22 54
-50z"/>
<path d="M1865 2901 c-161 -44 -307 -160 -349 -278 -23 -67 -6 -152 41 -198
16 -17 16 -17 -2 -12 -22 7 -95 23 -135 30 -14 3 -44 10 -66 17 l-41 12 49 97
c74 145 73 192 -4 254 -49 40 -85 38 -146 -6 -41 -31 -207 -196 -313 -313 -96
-106 -190 -261 -204 -336 -5 -27 -13 -38 -31 -42 -28 -7 -59 -53 -75 -110 -6
-21 -22 -64 -36 -94 -39 -86 -17 -165 54 -193 l23 -8 -20 -33 c-27 -47 -49
-139 -43 -184 7 -63 21 -101 93 -249 177 -364 403 -596 650 -664 181 -50 378
-10 519 106 94 76 127 132 116 191 -9 48 -79 114 -220 207 -126 82 -166 115
-198 159 -18 26 -19 29 -3 23 32 -13 221 -49 254 -49 56 0 83 38 97 142 4 24
11 52 16 62 5 10 7 18 4 18 -3 0 4 18 15 40 11 21 20 50 20 63 0 33 -30 68
-71 84 l-34 12 45 -5 c184 -22 231 -3 265 109 15 50 5 82 -37 118 -31 26 -383
199 -488 240 -47 18 -88 37 -91 42 -8 11 22 139 44 191 9 21 14 42 11 47 -3 5
0 9 5 9 6 0 11 -4 11 -9 0 -12 98 -87 259 -195 302 -204 357 -260 457 -459
123 -246 191 -294 326 -229 129 62 244 179 295 302 24 57 27 79 28 175 0 133
-20 200 -96 324 -55 89 -194 237 -299 318 -105 81 -275 190 -375 239 -81 40
-102 46 -171 50 -57 3 -99 -1 -149 -15z m313 -165 c9 -10 -27 -39 -113 -88
-82 -48 -229 -148 -233 -160 -2 -4 -12 -8 -23 -8 -41 0 -11 98 50 163 40 44
103 77 172 91 67 13 134 14 147 2z m397 -268 c10 -10 -22 -35 -113 -89 -103
-62 -188 -119 -221 -148 -77 -67 -59 67 19 146 42 44 91 70 160 89 44 11 144
13 155 2z m-1402 -187 c-16 -41 -16 -45 0 -73 17 -29 17 -30 -6 -48 -28 -22
-61 -112 -53 -145 14 -54 84 -99 346 -220 149 -69 259 -114 297 -121 12 -2 32
-9 45 -14 38 -16 -58 -1 -127 21 -77 24 -126 24 -157 0 -25 -20 -34 -39 -86
-175 l-30 -79 -47 89 c-120 223 -164 293 -221 348 -19 19 -48 39 -64 46 -17 7
-28 15 -26 19 2 3 7 23 10 44 5 33 2 42 -23 68 -16 16 -36 29 -45 29 -35 0
-20 24 84 131 60 63 110 118 110 123 0 5 2 7 5 4 3 -2 -3 -24 -12 -47z m1644
-219 c20 -13 3 -27 -122 -102 -66 -39 -146 -92 -177 -117 -61 -46 -78 -48 -78
-7 0 56 74 155 142 190 63 32 206 54 235 36z m-1779 -470 c23 -3 12 -27 -25
-52 -20 -14 -86 -73 -147 -132 -61 -59 -117 -108 -123 -108 -34 0 6 142 55
195 46 50 67 65 121 84 46 16 71 19 119 13z m202 -354 c0 -4 -3 -8 -8 -8 -4 0
-25 -15 -47 -32 -34 -29 -73 -66 -209 -197 -50 -49 -68 -38 -52 31 16 70 38
109 83 153 42 40 89 64 143 72 19 3 37 7 38 8 7 6 52 -18 52 -27z m303 -225
c15 -2 27 -8 27 -12 0 -5 -21 -25 -47 -45 -26 -20 -93 -81 -150 -136 -57 -55
-108 -100 -113 -100 -18 0 -16 44 6 110 37 117 168 203 277 183z"/>
<path d="M2277 1503 c-3 -2 -51 -4 -108 -4 -188 0 -204 -17 -185 -207 4 -45
12 -84 17 -87 11 -7 68 -8 99 -1 38 9 134 18 199 20 73 1 91 15 84 64 -2 20
-5 72 -6 114 -2 43 -7 82 -13 88 -11 11 -79 21 -87 13z"/>
<path d="M2660 1374 c-46 -20 -109 -60 -255 -163 -230 -162 -342 -272 -389
-386 -21 -50 -14 -82 30 -134 28 -33 42 -41 69 -41 55 0 187 80 420 254 177
132 307 299 290 374 -8 39 -80 112 -108 112 -12 -1 -38 -8 -57 -16z"/>
</g>
</svg>
